<svg xmlns="http://www.w3.org/2000/svg" viewBox="0 0 100 100">
  <defs>
    <linearGradient id="grad" x1="0%" y1="0%" x2="100%" y2="100%">
      <stop offset="0%" style="stop-color:#6366f1;stop-opacity:1" />
      <stop offset="100%" style="stop-color:#22d3ee;stop-opacity:1" />
    </linearGradient>
  </defs>
  <rect width="100" height="100" rx="20" fill="url(#grad)"/>
  <path d="M50 25 C35 25 25 35 25 50 L25 70 C25 72 27 74 29 74 L71 74 C73 74 75 72 75 70 L75 50 C75 35 65 25 50 25 Z M42 45 L42 40 C42 35.58 45.58 32 50 32 C54.42 32 58 35.58 58 40 L58 45 M50 55 L50 62" fill="none" stroke="white" stroke-width="4" stroke-linecap="round" stroke-linejoin="round"/>
  <circle cx="50" cy="55" r="3" fill="white"/>
</svg>
